# xmcd
#
# Track frame offsets:
#	150
#	13927
#	37402
#	52017
#	65730
#	83037
#	99912
#	115665
#	131797
#	145322
#	167725
#	184047
#	199572
#	213075
#
# Disc length: 3039 seconds
#
# Revision: 1
# Processed by: cddbd v1.5.2PL0 Copyright (c) Steve Scherf et al.
# Submitted via: audiograbber 1.83.01
#
DISCID=ca0bdd0e
DTITLE=Peps Persson - The Week Peps Came To Chicago CD2
DYEAR=1972
DGENRE=Blues 70´s
TTITLE0=The Way You Touch Me - With The Aces
TTITLE1=My Friend Needs A Shot - With The Aces
TTITLE2=Peps' Thing - With The Aces
TTITLE3=Gypsy Woman - With The Aces
TTITLE4=Slidin' To Sweden - With The Aces
TTITLE5=The Way You Touch Me - With The Aces
TTITLE6=Gypsy Woman (Alternate Track) - With The Aces
TTITLE7=If There's A Train - With Jimmy "Fast Fingers" Dawkins And His Band
TTITLE8=Key To The Highway - With Jimmy "Fast Fingers" Dawkins And His Band
TTITLE9=Last Night - With Jimmy "Fast Fingers" Dawkins And His Band
TTITLE10=Going Back To The Country - With Jimmy "Fast Fingers" Dawkins And His 
TTITLE10=Band
TTITLE11=If There's A Train (Alternate Track) - With Jimmy "Fast Fingers" Dawki
TTITLE11=ns And His Band
TTITLE12=Key To The Highway (Alternate Track) - With Jimmy "Fast Fingers" Dawki
TTITLE12=ns And His Band
TTITLE13=Going Back To The Country (Alternate Track) - With Jimmy "Fast Fingers
TTITLE13=" Dawkins And His Band
EXTD=This is the second disc of Peps Persson's "The Week Peps Came To Chicago".
EXTD=
EXTT0=
EXTT1=
EXTT2=
EXTT3=
EXTT4=
EXTT5=
EXTT6=
EXTT7=
EXTT8=
EXTT9=
EXTT10=
EXTT11=
EXTT12=
EXTT13=
PLAYORDER=
